<svg width="400" height="572" viewBox="0 0 400 572" fill="none" xmlns="http://www.w3.org/2000/svg">
<path d="M400 0V209.368L386.415 221V12.3158L400 0Z" fill="#F58859"/>
<path d="M367.547 29.421V238.105L354.717 250.421V41.0526L367.547 29.421Z" fill="#F58859"/>
<path d="M335.849 58.1579V267.526L322.264 279.158V70.4737L335.849 58.1579Z" fill="#F58859"/>
<path d="M303.396 87.5789V296.947L289.811 308.579V99.8947L303.396 87.5789Z" fill="#F58859"/>
<path d="M270.943 117V325.684L258.113 338V128.631L270.943 117Z" fill="#F58859"/>
<path d="M239.245 145.737V355.105L225.66 367.421V158.053L239.245 145.737Z" fill="#F58859"/>
<path d="M206.792 175.158V384.526L193.207 396.158V187.474L206.792 175.158Z" fill="#F58859"/>
<path d="M174.34 204.579V413.263L160.755 425.579V216.895L174.34 204.579Z" fill="#F58859"/>
<path d="M141.887 234V442.684L129.056 455V245.632L141.887 234Z" fill="#F58859"/>
<path d="M110.189 262.737V472.105L96.6037 483.737V275.053L110.189 262.737Z" fill="#F58859"/>
<path d="M77.7358 292.158V501.526L64.1509 513.158V304.474L77.7358 292.158Z" fill="#F58859"/>
<path d="M45.2829 321.579V530.263L32.4527 542.579V333.21L45.2829 321.579Z" fill="#F58859"/>
<path d="M13.5849 350.316V559.684L0 572V362.632L13.5849 350.316Z" fill="#F58859"/>
</svg>
