<svg width="137" height="139" viewBox="0 0 137 139" fill="none" xmlns="http://www.w3.org/2000/svg">
<path d="M95.2707 2.01075C94.8125 1.32293 94.5839 0.864061 94.1257 0.176242L90.8972 0.190259C91.5841 1.33696 92.0413 2.25471 92.7281 3.4014C99.8212 16.247 101.141 30.9572 96.24 44.5447L100.409 40.3878C103.693 27.4971 101.907 13.9386 95.2707 2.01075ZM74.747 2.09986C74.2888 1.41205 74.0602 0.953183 73.602 0.265364L70.3735 0.279378C71.0604 1.42608 71.5176 2.34382 72.2045 3.49052C80.9008 18.8585 80.8203 37.4837 71.9908 52.9277C69.6669 57.0767 67.1124 61.2266 64.5589 65.1466C59.6814 73.2156 54.806 80.8247 51.7744 88.6557L57.1011 83.344C59.8922 77.8134 63.3751 72.2798 66.858 66.7462C69.4125 62.5963 71.967 58.4463 74.2909 54.2974C83.8162 37.9306 83.9006 18.3856 74.747 2.09986ZM64.6005 2.14393C64.1423 1.45611 63.9136 0.997248 63.4554 0.309429L60.227 0.323443C60.9138 1.47014 61.3711 2.38789 62.0579 3.53459C70.7543 18.9025 70.6738 37.5277 61.8443 52.9718C59.5204 57.1208 56.9659 61.2707 54.4123 65.1907C46.7488 77.6405 39.3198 89.1696 38.5733 101.819L41.5841 98.8171C43.244 88.2328 49.7466 77.6275 56.4808 66.7913C59.0353 62.6413 61.5898 58.4914 63.9138 54.3425C73.6696 37.9746 73.7541 18.4297 64.6005 2.14393ZM85.1242 2.05481C84.666 1.36699 84.4374 0.908114 83.9791 0.220295L80.7507 0.234324C81.4375 1.38102 81.8947 2.29877 82.5816 3.44547C91.2779 18.8134 91.1975 37.4386 82.368 52.8827C80.0441 57.0316 77.4896 61.1816 74.936 65.1016C74.4728 65.5635 74.2393 66.2543 73.7761 66.7162L82.3441 58.4013C83.2725 57.0176 83.9713 55.405 84.8997 54.0214C93.9627 37.8865 94.0472 18.3415 85.1242 2.05481ZM3.72123 2.4083C3.263 1.72048 3.0344 1.26161 2.57617 0.573791L0.731324 0.581806L0.721388 2.88121C0.950997 3.11015 0.950005 3.34008 1.17961 3.56902C9.87598 18.937 9.79549 37.5622 0.966 53.0062C0.734403 53.2372 0.501822 53.6981 0.500828 53.928L0.476986 59.4466C1.40635 57.833 2.56733 55.9884 3.49669 54.3749C12.7904 38.239 12.8748 18.694 3.72123 2.4083ZM13.8678 2.36424C13.4095 1.67642 13.1809 1.21755 12.7227 0.52973L9.49426 0.543751C10.1811 1.69045 10.6383 2.60819 11.3252 3.75489C20.0215 19.1229 19.9411 37.748 11.1116 53.1921C8.78764 57.3411 6.23313 61.491 3.6796 65.411C2.51864 67.2555 1.35768 69.1001 0.196714 70.9446L0.173861 76.2332C2.0316 73.236 3.89034 70.0088 5.97968 66.7806C8.5342 62.6307 11.0887 58.4807 13.4126 54.3318C22.9369 38.1949 23.0214 18.65 13.8678 2.36424ZM105.417 1.96669C104.959 1.27887 104.73 0.819999 104.272 0.13218L101.044 0.146206C101.731 1.2929 102.188 2.21065 102.875 3.35735C107.909 12.303 109.943 21.9515 109.208 31.8419L111.988 29.0706C112.259 19.6421 109.994 10.2245 105.417 1.96669ZM24.0143 2.32018C23.5561 1.63236 23.3275 1.17349 22.8692 0.485669L19.6408 0.499694C20.3276 1.64639 20.7849 2.56414 21.4717 3.71083C30.1681 19.0788 30.0876 37.704 21.2581 53.148C18.9342 57.297 16.3797 61.4469 13.8262 65.367C8.25392 74.1287 3.14389 82.6586 0.109283 91.1794L0 116.473C1.82098 121.983 4.56537 127.26 7.77096 132.535L9.85532 130.456C4.8198 121.74 0.936304 113.25 0.744448 104.283C0.568488 91.6373 8.23107 79.4174 16.1272 66.5066C18.6817 62.3567 21.2362 58.2068 23.5602 54.0578C33.0835 38.1509 33.1679 18.6059 24.0143 2.32018ZM134.712 0L131.483 0.01402C132.17 1.16072 132.627 2.07846 133.314 3.22516C133.772 4.14292 134.229 5.06068 134.916 6.20738L137 4.1289C136.542 3.44109 136.314 2.75226 135.857 1.8345C135.629 1.14568 135.171 0.457878 134.712 0ZM125.71 1.87857C125.483 1.18975 125.024 0.731881 124.565 0.044062L121.337 0.058076C122.024 1.20477 122.481 2.12251 123.168 3.26921C124.999 6.48037 126.367 9.92347 127.506 13.3676L129.822 11.0582C128.681 8.07395 127.312 4.86078 125.71 1.87857ZM3.60122 136.922C2.45615 135.087 1.31109 133.252 0.167014 131.188L0.143168 136.707C0.601394 137.394 1.05862 138.312 1.51685 139L3.60122 136.922ZM44.3074 2.23205C43.8492 1.54423 43.6206 1.08536 43.1623 0.397541L39.9339 0.411565C40.6207 1.55826 41.078 2.47601 41.7648 3.62271C50.4612 18.9907 50.3807 37.6159 41.5512 53.0599C39.2273 57.2089 36.6728 61.3588 34.1192 65.2788C25.9925 78.1905 18.3289 90.6404 18.2723 103.747C18.2713 103.977 18.2703 104.207 18.2693 104.437C18.4781 109.495 19.6102 114.318 21.4352 118.909L23.5195 116.831C22.1538 112.698 21.0187 108.564 21.0366 104.425C20.8606 91.7791 28.5232 79.5592 36.4193 66.6485C38.9738 62.4985 41.5284 58.3486 43.8523 54.1996C53.3766 38.0627 53.461 18.5178 44.3074 2.23205ZM54.454 2.188C53.9957 1.50018 53.7671 1.0413 53.3089 0.353479L50.311 0.36651C50.9979 1.51321 51.4551 2.43095 52.142 3.57765C60.8383 18.9456 60.7579 37.5708 51.9284 53.0149C49.6045 57.1638 47.0499 61.3138 44.4964 65.2338C36.3696 78.1455 28.7061 90.5953 28.6494 103.702C28.6485 103.932 28.6475 104.162 28.6465 104.392C28.6365 106.691 28.8572 108.99 29.3095 111.057L31.6254 108.748C31.4008 107.369 31.1771 105.76 31.1831 104.381C31.0071 91.735 38.6697 79.5151 46.5659 66.6044C49.1204 62.4544 51.6749 58.3045 53.9988 54.1556C63.5231 38.0187 63.6075 18.4737 54.454 2.188ZM115.564 1.92263C115.106 1.23481 114.877 0.775931 114.419 0.0881121L111.19 0.102138C111.877 1.24884 112.334 2.16658 113.021 3.31327C116.224 9.27771 118.272 15.4771 119.167 21.9114L121.483 19.602C120.587 13.3976 118.538 7.42818 115.564 1.92263ZM34.1609 2.27612C33.7026 1.5883 33.474 1.12943 33.0158 0.441607L29.7873 0.455632C30.4742 1.60233 30.9314 2.52008 31.6183 3.66678C40.3146 19.0347 40.2342 37.6599 31.4047 53.104C29.0807 57.2529 26.5262 61.4029 23.9727 65.3229C15.8459 78.2346 8.18238 90.6844 8.12575 103.791C8.12475 104.021 8.12376 104.251 8.12277 104.481C8.32158 111.838 10.8274 118.955 14.2557 126.068L16.34 123.99C13.1394 117.565 10.8612 111.137 10.89 104.469C10.714 91.8231 18.3766 79.6032 26.2728 66.6925C28.8273 62.5426 31.3818 58.3926 33.7057 54.2437C43.23 38.1068 43.3145 18.5618 34.1609 2.27612Z" fill="#2A263F"/>
</svg>
